<?xml version="1.0" encoding="UTF-8"?>
<svg width="20px" height="20px" viewBox="0 0 20 20" version="1.1" xmlns="http://www.w3.org/2000/svg" xmlns:xlink="http://www.w3.org/1999/xlink">
    <!-- Generator: Sketch 52.6 (67491) - http://www.bohemiancoding.com/sketch -->
    <title>social/ic_fb</title>
    <desc>Created with Sketch.</desc>
    <g id="social/ic_fb" stroke="none" stroke-width="1" fill="none" fill-rule="evenodd">
        <path d="M14.4362264,1.00371134 L12.0843396,1 C9.44207547,1 7.7345283,2.72298969 7.7345283,5.3897732 L7.7345283,7.41375258 L5.36981132,7.41375258 C5.1654717,7.41375258 5,7.57668041 5,7.77764948 L5,10.7101649 C5,10.911134 5.16566038,11.0738763 5.36981132,11.0738763 L7.7345283,11.0738763 L7.7345283,18.4735464 C7.7345283,18.6745155 7.9,18.8372577 8.10433962,18.8372577 L11.1896226,18.8372577 C11.3939623,18.8372577 11.559434,18.6743299 11.559434,18.4735464 L11.559434,11.0738763 L14.3243396,11.0738763 C14.5286792,11.0738763 14.6941509,10.911134 14.6941509,10.7101649 L14.695283,7.77764948 C14.695283,7.68115464 14.6562264,7.58874227 14.5869811,7.52045361 C14.5177358,7.45216495 14.4233962,7.41375258 14.325283,7.41375258 L11.559434,7.41375258 L11.559434,5.698 C11.559434,4.87334021 11.7592453,4.45470103 12.8515094,4.45470103 L14.4358491,4.45414433 C14.64,4.45414433 14.8054717,4.29121649 14.8054717,4.09043299 L14.8054717,1.36742268 C14.8054717,1.16682474 14.6401887,1.00408247 14.4362264,1.00371134 Z" id="Path" fill="#FFFFFF"></path>
    </g>
</svg>