<?xml version="1.0" encoding="UTF-8"?>
<svg width="96px" height="96px" viewBox="0 0 96 96" version="1.1" xmlns="http://www.w3.org/2000/svg" xmlns:xlink="http://www.w3.org/1999/xlink">
    <!-- Generator: Sketch 52.6 (67491) - http://www.bohemiancoding.com/sketch -->
    <title>ic_box</title>
    <desc>Created with Sketch.</desc>
    <g id="ic_box" stroke="none" stroke-width="1" fill="none" fill-rule="evenodd">
        <g transform="translate(9.000000, 12.000000)">
            <path d="M23.9387294,2.89207061 L17.923501,2.8920765 C17.318062,2.89051837 16.7541343,3.19826882 16.4298758,3.70703135 L3.96237513,23.1623228 L9.97760356,23.1623228 L22.4451042,3.70703135 C22.7693628,3.19826882 23.3332904,2.89051837 23.9387294,2.89207061 Z" id="Path" fill="#D4E1F4"></path>
            <path d="M10.5924413,64.0284857 C9.61496669,64.0277066 8.82311821,63.2392418 8.82155184,62.2669057 L8.82155184,25.9546725 L2.80632342,25.9546725 L2.80632342,68.2505123 C2.80788978,69.2228484 3.59973826,70.0113132 4.57721288,70.0120922 L74.4212206,70.0120922 C75.3986952,70.0113132 76.191327,69.2228484 76.1921102,68.2505123 L76.1921102,64.0284857 L10.5924413,64.0284857 Z" id="Path" fill="#D4E1F4"></path>
            <g id="Group" transform="translate(7.819797, 55.248634)" fill="#295F95">
                <path d="M13.6337346,9.57766602 L1.60327773,9.57766602 C0.828660274,9.57766602 0.199724431,8.95281554 0.199724431,8.18149116 L0.199724431,1.40007039 C0.199724431,0.629525273 0.828660274,0.00389552732 1.60327773,0.00389552732 L13.6337346,0.00389552732 C14.409135,0.00389552732 15.0372879,0.629525273 15.0372879,1.40007039 L15.0372879,8.18149116 C15.0372879,8.95281554 14.409135,9.57766602 13.6337346,9.57766602 Z M3.00683103,6.78531629 L12.2301813,6.78531629 L12.2301813,2.79624525 L3.00683103,2.79624525 L3.00683103,6.78531629 Z" id="Shape" fill-rule="nonzero"></path>
                <path d="M38.6971864,2.79624525 L20.4509935,2.79624525 C19.676376,2.79624525 19.0474402,2.17139477 19.0474402,1.40007039 C19.0474402,0.629525273 19.676376,0.00389552732 20.4509935,0.00389552732 L38.6971864,0.00389552732 C39.4725868,0.00389552732 40.1007397,0.629525273 40.1007397,1.40007039 C40.1007397,2.17139477 39.4725868,2.79624525 38.6971864,2.79624525 Z" id="Path"></path>
                <path d="M29.6743437,7.9820376 L20.4509935,7.9820376 C19.676376,7.9820376 19.0474402,7.35718712 19.0474402,6.58586274 C19.0474402,5.81531762 19.676376,5.18968788 20.4509935,5.18968788 L29.6743437,5.18968788 C30.4497442,5.18968788 31.077897,5.81531762 31.077897,6.58586274 C31.077897,7.35718712 30.4497442,7.9820376 29.6743437,7.9820376 Z" id="Path"></path>
            </g>
            <path d="M17.923501,0.099726776 C16.3586018,0.0958312486 14.9010053,0.890528995 14.0629462,2.20567585 L0.220088386,23.8082096 C0.216172272,23.8144426 0.21303934,23.8206755 0.209123226,23.8276875 C0.181710025,23.872097 0.156646574,23.9180649 0.134716053,23.9655908 C0.130016756,23.9741612 0.125317259,23.9827315 0.121401145,23.9920807 C0.0971208756,24.0473979 0.0759735381,24.1042733 0.057959132,24.1619279 C0.0563927665,24.1697192 0.054826401,24.1767312 0.0524766523,24.1845222 C0.0383783604,24.2343856 0.0274132005,24.2858073 0.0195808117,24.3372289 C0.0172311231,24.351253 0.0148814345,24.365277 0.0125317259,24.3800803 C0.00469939721,24.439293 0.000783232868,24.4992849 0,24.5592767 L0,68.2505123 C0.00313293147,70.7647179 2.05050355,72.8021046 4.57799606,72.804442 L74.4212206,72.804442 C76.9487131,72.8021046 78.9968671,70.7647179 78.9992168,68.2505123 L78.9992168,24.5584976 C78.9992168,24.4985058 78.9945173,24.438514 78.9866851,24.3793012 C78.9851185,24.364498 78.9819856,24.350474 78.979636,24.3364498 C78.9718036,24.2850281 78.9608385,24.2336066 78.9467402,24.1837432 C78.9451736,24.1759521 78.9436072,24.1689399 78.9412575,24.1611489 C78.9240265,24.1034942 78.9028791,24.0466189 78.8778157,23.9913016 C78.8738996,23.9819522 78.8692001,23.9733819 78.8652839,23.9648118 C78.8425702,23.9172856 78.8175068,23.8713179 78.7900936,23.8269084 C78.7861775,23.8206755 78.7838277,23.8136633 78.7791284,23.8074304 L64.9362706,2.20567585 C64.0982116,0.89130806 62.640615,0.0958312486 61.0757159,0.099726776 L17.923501,0.099726776 Z M16.4298758,3.70703135 C16.7541343,3.19826882 17.318062,2.89051837 17.923501,2.8920765 L38.0956635,2.89207061 L38.0956635,23.1623228 L3.96237513,23.1623228 L16.4298758,3.70703135 Z M29.6234336,25.9546725 L49.3742168,25.9546725 L49.3742168,43.093654 L48.0427209,41.6803385 C47.7772049,41.3990779 47.4067359,41.2393593 47.0182524,41.2393593 C46.630552,41.2393593 46.2600829,41.3990779 45.9945669,41.6803385 L43.2603009,44.5833227 L40.5244686,41.6803385 C40.2589526,41.3990779 39.8884835,41.2393593 39.5,41.2393593 C39.1122997,41.2393593 38.7418306,41.3990779 38.4763146,41.6803385 L35.7404822,44.5833227 L33.0038665,41.6803385 C32.7383507,41.3990779 32.3678816,41.2393593 31.9801813,41.2393593 C31.5916978,41.2393593 31.2212287,41.3990779 30.9564959,41.6803385 L29.6234336,43.0944331 L29.6234336,25.9546725 Z M74.4204374,70.0120922 L4.57721288,70.0120922 C3.59973826,70.0113132 2.80788978,69.2228484 2.80632342,68.2505123 L2.80632342,25.9546725 L26.816327,25.9546725 L26.816327,46.6238259 C26.816327,47.1972549 27.1687817,47.7122503 27.7037298,47.9226114 C28.2394611,48.1329726 28.8503827,47.9974065 29.2443487,47.5790215 L31.9801813,44.6760375 L34.7167968,47.5790215 C34.9823128,47.8602821 35.3527819,48.0200008 35.7404822,48.0200008 C36.1289657,48.0200008 36.4994348,47.8602821 36.7649508,47.5790215 L39.5007832,44.6760375 L42.2366157,47.5790215 C42.5021315,47.8610614 42.8726006,48.02078 43.2603009,48.02078 C43.6487845,48.02078 44.0192535,47.8610614 44.2847695,47.5790215 L47.0182524,44.6768166 L49.7540847,47.5790215 C50.1472675,47.9974065 50.7589725,48.1345308 51.2947038,47.9233906 C51.8304351,47.7130294 52.1828898,47.1972549 52.1821066,46.6238259 L52.1821066,25.9546725 L76.1921102,25.9546725 L76.1921102,68.2505123 C76.191327,69.2228484 75.3986952,70.0113132 74.4212206,70.0120922 L74.4204374,70.0120922 Z M62.569341,3.70703135 L75.0368417,23.1623228 L40.9027701,23.1623228 L40.9027701,2.89207061 L61.0757159,2.8920765 C61.6811548,2.89051837 62.2450825,3.19826882 62.569341,3.70703135 Z" id="Shape" fill="#295F95" fill-rule="nonzero"></path>
        </g>
    </g>
</svg>