<?xml version="1.0" encoding="UTF-8"?>
<svg width="96px" height="96px" viewBox="0 0 96 96" version="1.1" xmlns="http://www.w3.org/2000/svg" xmlns:xlink="http://www.w3.org/1999/xlink">
    <!-- Generator: Sketch 52.6 (67491) - http://www.bohemiancoding.com/sketch -->
    <title>ic_email</title>
    <desc>Created with Sketch.</desc>
    <g id="ic_email" stroke="none" stroke-width="1" fill="none" fill-rule="evenodd">
        <g transform="translate(0.000000, 17.000000)">
            <path d="M69.5808978,55.2234076 L13.4639876,55.2234076 C9.81341341,55.2195262 6.85490605,52.2861079 6.85020887,48.6657152 L6.85020887,11.4208483 C6.85020887,10.6702223 6.98016701,9.92580634 7.23460329,9.21864984 C4.60334029,10.152469 2.84577249,12.6232473 2.84185814,15.3952073 L2.84185814,52.6400742 C2.84655532,56.2604668 5.80506268,59.1938852 9.45563684,59.1977665 L65.5725471,59.1977665 C68.368215,59.1946614 70.8601253,57.4519981 71.8019312,54.8422727 C71.0895093,55.0953275 70.3379436,55.2241837 69.5808978,55.2234076 Z" id="Path" fill="#D4E1F4"></path>
            <path d="M90.9316285,21.5686598 L90.5668058,21.5686598 L90.5668058,16.038712 C90.5668058,7.20042067 83.3408143,0.0357072308 74.4269311,0.0357072308 C65.5138309,0.0357072308 58.2878392,7.20042067 58.2878392,16.038712 L58.2878392,21.5686598 L57.9230168,21.5686598 C55.1954593,21.5725411 52.9861691,23.7630959 52.9822547,26.467523 L52.9822547,30.0498798 L41.2460855,39.9182441 C39.0822025,41.7486228 35.8982256,41.7501752 33.7319938,39.9221255 L2.9318893,14.063176 L2.30871603,13.5407652 C1.95485381,13.2442409 1.47651367,13.1394482 1.0302714,13.2620943 C0.584029127,13.3839642 0.22703539,13.716196 0.0759394071,14.1508915 L0.0759394071,14.1524439 C0.00234865303,14.3604768 -0.0180062731,14.5832583 0.016440491,14.800606 C0.0618476493,15.1374949 0.232515608,15.445663 0.494780793,15.6653395 L2.80584551,17.6043921 L31.9188414,42.0451472 C35.1302192,44.7565604 39.8525574,44.755008 43.0615866,42.0404898 L53.4793842,33.2813753 C54.3068894,34.9673728 56.0315763,36.0385868 57.9230168,36.039363 L62.0495824,36.039363 C62.8238518,36.039363 63.4525051,35.4168168 63.4525051,34.6483373 L63.4525051,22.9596854 C63.4525051,22.1919821 62.8238518,21.5686598 62.0495824,21.5686598 L61.0936847,21.5686598 L61.0936847,16.038712 C61.0936847,8.73660362 67.0631525,2.81775851 74.4269311,2.81775851 C81.7914927,2.81775851 87.7609603,8.73660362 87.7609603,16.038712 L87.7609603,21.5686598 L86.8066283,21.5686598 C86.0323591,21.5686598 85.4037056,22.1919821 85.4037056,22.9596854 L85.4037056,34.6483373 C85.4037056,35.4168168 86.0323591,36.039363 86.8066283,36.039363 L87.7609603,36.039363 L87.7609603,37.684996 C87.7601775,39.2514524 86.4793842,40.5213841 84.8987474,40.5229367 L80.8324634,40.5229367 C80.3345512,38.9665716 78.8791754,37.9093299 77.2327766,37.9077775 L73.5211378,37.9077775 C71.4363257,37.9101063 69.7460855,39.5860126 69.7437371,41.653145 L69.7437371,42.1755558 C69.742954,43.1691456 70.1414404,44.1223707 70.8499479,44.8240935 C71.5584551,45.5265924 72.5190502,45.9209236 73.5211378,45.9201472 L77.2327766,45.9201472 C78.8791754,45.9178184 80.3345512,44.8605769 80.8324634,43.304988 L84.8987474,43.304988 C88.0279227,43.3011068 90.5636743,40.786859 90.5668058,37.684996 L90.5668058,36.039363 L90.9316285,36.039363 C93.6591857,36.0370342 95.8692588,33.845703 95.8716075,31.1412761 L95.8716075,26.467523 C95.868476,23.7630959 93.6584029,21.5725411 90.9316285,21.5686598 Z M60.6466596,33.2573117 L57.9230168,33.2573117 C56.7439979,33.2565355 55.7896661,32.3095203 55.7881002,31.1412761 L55.7881002,26.467523 C55.7896661,25.2992788 56.7447807,24.3522636 57.9230168,24.350711 L60.6466596,24.350711 L60.6466596,33.2573117 Z M78.2027662,42.1755558 C78.2027662,42.7072816 77.7682672,43.1373197 77.2327766,43.1380959 L73.5211378,43.1380959 C72.9856472,43.1373197 72.5503654,42.7072816 72.5495826,42.1755558 L72.5495826,41.653145 C72.5503654,41.1214193 72.9848642,40.690605 73.5211378,40.6898288 L77.2327766,40.6898288 C77.7690501,40.690605 78.2027662,41.1221955 78.2027662,41.653145 L78.2027662,42.1755558 Z M93.0665448,31.1420523 C93.0649792,32.3102965 92.1106472,33.2565355 90.9324113,33.2580879 L88.2087683,33.2580879 L88.2087683,24.350711 L90.9324113,24.350711 C92.1106472,24.3522636 93.0649792,25.2985027 93.0665448,26.4667468 L93.0665448,31.1420523 Z" id="Shape" fill="#295F95" fill-rule="nonzero"></path>
            <path d="M74.9561587,45.9201472 L74.9561587,52.5826322 C74.9577243,54.7630959 74.1865866,56.8744741 72.7774008,58.5480518 C72.7100731,58.6776843 72.6223904,58.7956731 72.5174843,58.898137 C72.454071,58.9610126 72.3836116,59.016902 72.308455,59.0650291 C70.5375783,60.8923026 68.091858,61.9239284 65.5365344,61.9223758 L9.41962422,61.9223758 C6.86038627,61.923152 4.4115345,60.8884215 2.63987474,59.0572666 C2.56628403,59.0099159 2.4973905,58.9548026 2.43476002,58.8942559 C2.32985386,58.7917919 2.24138836,58.6738031 2.17249483,58.5441707 C0.767223382,56.8705929 -0.001565762,54.7607671 7.12026483e-16,52.5826322 L7.12026483e-16,15.3393179 C7.12026483e-16,15.1584535 0.00626304802,14.9791416 0.016440491,14.800606 C0.0281837161,14.5840345 0.0485387223,14.3674629 0.0759394071,14.1524439 L0.0759394071,14.1508915 C0.683455065,9.49188702 4.68241122,6.00345563 9.41962422,5.99957427 L61.868737,5.99957427 C61.1649269,6.86120297 60.5534969,7.79346955 60.045407,8.78162555 L9.41962422,8.78162555 C5.76670156,8.78162555 2.80584551,11.7173728 2.80584551,15.3393179 L2.80584551,52.5826322 C2.80427985,53.6771335 3.08063679,54.7545572 3.60986435,55.7147687 L20.3705637,38.7181741 C20.71738,38.3463542 21.2395615,38.1903296 21.7359081,38.3114233 C22.2314718,38.4325171 22.6221294,38.810547 22.7552191,39.2988031 C22.888309,39.7878355 22.743476,40.3094701 22.3763049,40.6618841 L5.45120047,57.8269231 C6.59498956,58.6807893 7.98773491,59.1418771 9.41962422,59.1403245 L65.5365344,59.1403245 C66.9645094,59.1418771 68.3549061,58.683118 69.4971295,57.833133 L52.4772965,40.6657652 C51.933977,40.1177383 51.9418059,39.2359274 52.4945198,38.6972155 C53.0472339,38.1585037 53.9358039,38.166266 54.479906,38.7142928 L71.3408143,55.7248598 C71.8731734,54.7615435 72.151096,53.6810147 72.1503132,52.5826322 L72.1503132,45.6655398 C72.5871609,45.8339845 73.0521921,45.9209236 73.5211378,45.9201472 L74.9561587,45.9201472 Z" id="Path" fill="#295F95"></path>
        </g>
    </g>
</svg>