<?xml version="1.0" encoding="UTF-8"?>
<svg width="96px" height="96px" viewBox="0 0 96 96" version="1.1" xmlns="http://www.w3.org/2000/svg" xmlns:xlink="http://www.w3.org/1999/xlink">
    <!-- Generator: Sketch 52.6 (67491) - http://www.bohemiancoding.com/sketch -->
    <title>ic_Invitation</title>
    <desc>Created with Sketch.</desc>
    <g id="ic_Invitation" stroke="none" stroke-width="1" fill="none" fill-rule="evenodd">
        <g id="love-letter" transform="translate(14.000000, 17.000000)">
            <polygon id="Path-2" fill="#D4E1F4" points="6.66895508 22.4206122 6.66895508 53 66.3045527 53 66.3045527 58.2306715 4.48729102 58.2306715 2.6953125 55.4383218 2.6953125 27"></polygon>
            <path d="M68.9911055,27.2471622 C68.9902969,27.2313514 68.9892187,27.2155405 68.9882754,27.1997297 C68.922375,26.1132432 68.5520391,25.0806757 67.9050293,24.1947297 C67.8802324,24.1606757 67.8539531,24.1281081 67.8265957,24.097027 C67.5298418,23.707027 67.1837637,23.3528378 66.7907871,23.0495946 L58.0829063,16.327027 L58.0829063,11.7459459 C58.0829063,8.73067568 55.6365059,6.27743243 52.6293457,6.27743243 L45.0653555,6.27743243 L39.1155879,1.68418919 C36.3979043,-0.413513514 32.6020957,-0.413513514 29.8844121,1.68418919 L23.9346445,6.27743243 L16.3706543,6.27743243 C13.3636289,6.27743243 10.9170938,8.73054054 10.9170938,11.7459459 L10.9170938,16.327027 L2.20934766,23.0494595 C1.81637109,23.3527027 1.47029297,23.7068919 1.1734043,24.0968919 C1.14604688,24.127973 1.11990234,24.1605405 1.0949707,24.1945946 C0.447960938,25.0806757 0.077625,26.1131081 0.0117246094,27.1995946 C0.01078125,27.2154054 0.009703125,27.2310811 0.00889453125,27.247027 C0.00363867187,27.347973 0,27.4491892 0,27.5508108 L0,55.4816216 C0,57.9118919 1.97189062,59.8891892 4.39551562,59.8891892 L64.6044844,59.8891892 C67.0281094,59.8891892 69,57.9118919 69,55.4816216 L69,27.5508108 C69,27.4491892 68.9963613,27.347973 68.9911055,27.2471622 Z M58.0829063,19.7381081 L64.5128438,24.7018919 L58.0829063,28.1702703 L58.0829063,19.7381081 Z M31.5286875,3.82594595 C32.4034512,3.15054054 33.4516582,2.81297297 34.5,2.81297297 C35.5480723,2.81297297 36.5966836,3.15081081 37.4713125,3.82594595 L40.6470645,6.2777027 L28.3529355,6.2777027 L31.5286875,3.82594595 Z M13.6124063,14.2463514 L13.6124063,11.7460811 C13.6124063,10.2210811 14.8498242,8.98027027 16.3706543,8.98027027 L20.4337031,8.98027027 L24.8519941,8.98027027 L44.1480059,8.98027027 L48.5662969,8.98027027 L52.6293457,8.98027027 C54.1501758,8.98027027 55.3875938,10.2210811 55.3875938,11.7460811 L55.3875938,14.2463514 L55.3875938,17.6572973 L55.3875938,29.6241892 L43.7077266,35.9244595 C43.6829297,35.7924324 43.6550332,35.6605405 43.6201289,35.5293243 C43.2000645,33.9463514 42.1013203,32.6810811 40.6059609,32.0575676 C39.1050762,31.432027 37.4171367,31.5431081 35.9742012,32.3627027 L34.5,33.1998649 L33.0259336,32.3625676 C31.5832676,31.5431081 29.8949238,31.4318919 28.3941738,32.0574324 C26.8986797,32.6809459 25.8000703,33.9463514 25.3800059,35.5291892 C25.3451016,35.6605405 25.3172051,35.7922973 25.2924082,35.9243243 L13.612541,29.6240541 L13.612541,17.6572973 L13.6124062,17.6572973 L13.6124063,14.2463514 Z M41.0671289,37.3486486 C40.9962422,37.7628378 40.8260332,38.1583784 40.5609492,38.5033784 L37.6886895,42.24 L34.8315234,45.9568919 C34.7220938,46.0991892 34.5769512,46.1204054 34.5001348,46.1204054 C34.4233184,46.1204054 34.2781758,46.0991892 34.1687461,45.957027 L31.3115801,42.24 L28.4393203,38.5033784 C28.1741016,38.1583784 28.0038926,37.7628378 27.9330059,37.3486486 C27.8700703,36.9810811 27.8851641,36.5990541 27.9846211,36.2241892 C28.1873086,35.4602703 28.7137031,34.8510811 29.4289043,34.5531081 C29.7420996,34.4224324 30.0674238,34.3577027 30.3935566,34.3577027 C30.836127,34.3577027 31.2803145,34.4771622 31.6975488,34.7141892 L33.835875,35.9287838 C34.2478535,36.1628378 34.752416,36.1628378 35.1642598,35.9287838 L37.3025859,34.7141892 C38.0273555,34.3024324 38.8332539,34.2454054 39.5712305,34.5531081 C40.2864316,34.8512162 40.8128262,35.4604054 41.0155137,36.2243243 C41.1149707,36.5991892 41.1300645,36.9812162 41.0671289,37.3486486 Z M10.9170937,19.7381081 L10.9170937,28.1702703 L4.48729102,24.7018919 L10.9170937,19.7381081 Z M2.6953125,55.3235135 L2.6953125,27.5508108 C2.6953125,27.3132432 2.72482617,27.0781081 2.78048438,26.8502703 L11.6260957,31.6216216 C11.6262305,31.6217568 11.6262305,31.6217568 11.6263652,31.6217568 L23.069584,37.7943243 L2.6953125,55.3235135 Z M4.66895508,57.1866216 L25.6135547,39.1666216 L25.7355176,39.2324324 C25.8923848,39.5536486 26.0809219,39.8627027 26.3043633,40.1533784 L32.0339238,47.6071622 C32.6279707,48.38 33.5268574,48.8232432 34.5,48.8232432 C35.4731426,48.8232432 36.3720293,48.38 36.9660762,47.607027 L42.6957715,40.1533784 C42.9192129,39.8627027 43.10775,39.5536486 43.2646172,39.2324324 L43.3865801,39.1667568 L64.3310449,57.1866216 L4.66895508,57.1866216 Z M66.3045527,55.3235135 L45.930416,37.7943243 L57.3736348,31.6217568 C57.3737695,31.6217568 57.3739043,31.6216216 57.3740391,31.6214865 L66.2193809,26.8502703 C66.2750391,27.0781081 66.3045527,27.3132432 66.3045527,27.5508108 L66.3045527,55.3235135 Z" id="Shape" fill="#295F95" fill-rule="nonzero"></path>
            <path d="M41.7005273,18.5735135 C41.7342187,18.6545946 41.7761309,18.732973 41.8245117,18.8059459 C41.874375,18.8802703 41.9309766,18.9491892 41.9929687,19.0113514 C42.0549609,19.0735135 42.1236914,19.1302703 42.1979473,19.1789189 C42.2707207,19.2275676 42.3488848,19.2694595 42.4297441,19.3032432 C42.5106035,19.337027 42.5953711,19.3640541 42.6817559,19.3802703 C42.7692188,19.3978378 42.8582988,19.4072973 42.9458965,19.4072973 C43.0333594,19.4072973 43.1224395,19.3978378 43.2086895,19.3802703 C43.2949395,19.3640541 43.3798418,19.337027 43.4607012,19.3032432 C43.5415605,19.2694595 43.6209375,19.2275676 43.6937109,19.1789189 C43.767832,19.1302703 43.8366973,19.0735135 43.8986895,19.0113514 C43.9606816,18.9491892 44.0172832,18.8802703 44.0656641,18.8059459 C44.1141797,18.732973 44.155957,18.6545946 44.1896484,18.5735135 C44.2233398,18.4910811 44.2489453,18.4059459 44.2664648,18.3193243 C44.2839844,18.2328378 44.293418,18.1436486 44.293418,18.0559459 C44.293418,17.9681081 44.2839844,17.8787838 44.2664648,17.7924324 C44.2489453,17.7058108 44.2233398,17.6206757 44.1896484,17.5397297 C44.155957,17.4572973 44.1141797,17.3789189 44.0656641,17.3059459 C44.0172832,17.2316216 43.9606816,17.1627027 43.8986895,17.1005405 C43.8366973,17.0383784 43.767832,16.9816216 43.6937109,16.932973 C43.6209375,16.8844595 43.5414258,16.8424324 43.4607012,16.8086486 C43.379707,16.7748649 43.2949395,16.7478378 43.2086895,16.7316216 C43.0348418,16.6964865 42.8556035,16.6964865 42.6817559,16.7316216 C42.5953711,16.7478378 42.5104687,16.7748649 42.4297441,16.8086486 C42.3490195,16.8424324 42.2707207,16.8844595 42.1979473,16.932973 C42.1236914,16.9816216 42.0549609,17.0383784 41.9929687,17.1005405 C41.9309766,17.1627027 41.874375,17.2316216 41.8245117,17.3059459 C41.7761309,17.3789189 41.7342187,17.4572973 41.7005273,17.5397297 C41.6668359,17.6208108 41.6413652,17.7058108 41.6237109,17.7924324 C41.6061914,17.8789189 41.5982402,17.9681081 41.5982402,18.0559459 C41.5982402,18.1436486 41.6063262,18.232973 41.6237109,18.3193243 C41.6412305,18.4059459 41.6668359,18.4910811 41.7005273,18.5735135 Z" id="Path" fill="#295F95"></path>
            <path d="M26.0546426,19.4074324 L37.5547324,19.4074324 C38.2989082,19.4074324 38.9023887,18.8022973 38.9023887,18.0560811 C38.9023887,17.3098649 38.2989082,16.7047297 37.5547324,16.7047297 L26.0546426,16.7047297 C25.3104668,16.7047297 24.7069863,17.3098649 24.7069863,18.0560811 C24.7069863,18.8022973 25.3104668,19.4074324 26.0546426,19.4074324 Z" id="Path" fill="#295F95"></path>
            <path d="M26.0546426,26.3444595 L42.9453574,26.3444595 C43.6895332,26.3444595 44.2930137,25.7393243 44.2930137,24.9931081 C44.2930137,24.2468919 43.6895332,23.6417568 42.9453574,23.6417568 L26.0546426,23.6417568 C25.3104668,23.6417568 24.7069863,24.2468919 24.7069863,24.9931081 C24.7069863,25.7393243 25.3104668,26.3444595 26.0546426,26.3444595 Z" id="Path" fill="#295F95"></path>
        </g>
    </g>
</svg>