<?xml version="1.0" encoding="UTF-8"?>
<svg width="96px" height="96px" viewBox="0 0 96 96" version="1.1" xmlns="http://www.w3.org/2000/svg" xmlns:xlink="http://www.w3.org/1999/xlink">
    <!-- Generator: Sketch 52.6 (67491) - http://www.bohemiancoding.com/sketch -->
    <title>ic_pay</title>
    <desc>Created with Sketch.</desc>
    <g id="ic_pay" stroke="none" stroke-width="1" fill="none" fill-rule="evenodd">
        <g transform="translate(17.000000, 8.000000)">
            <path d="M7.4773438,74.1554688 C7.1460938,74.1554688 6.8773438,73.8867188 6.8773438,73.5554688 L6.8773438,67.771875 L3.4773438,67.771875 C3.1460938,67.771875 2.8773438,68.0398438 2.8773438,68.371875 L2.8773438,77.5554688 C2.8773438,77.8867188 3.1460938,78.1554688 3.4773438,78.1554688 L33.628125,78.1554688 C33.959375,78.1554688 34.228125,77.8867188 34.228125,77.5554688 L34.228125,74.1554688 L7.4773438,74.1554688 Z" id="Path" fill="#D4E1F4"></path>
            <g id="Group" transform="translate(5.200000, 13.400000)" fill="#295F95">
                <path d="M1.5195312,54.371875 C0.7460938,54.371875 0.1195312,53.7445312 0.1195312,52.971875 L0.1195312,22.3695312 C0.1140624,20.3367188 0.9132812,18.3835938 2.3414062,16.9367188 C2.3820312,16.8945312 2.4257812,16.8554688 2.4710938,16.8195312 L19.6953124,3.1851562 C20.0875,2.8710938 20.6171876,2.7914062 21.084375,2.9757812 C21.5515624,3.159375 21.884375,3.5796876 21.95625,4.0765624 C22.028125,4.5734376 21.8289062,5.0710938 21.4328124,5.3804688 L4.2820312,18.9578124 C3.4046876,19.8765624 2.9164062,21.0992188 2.9195312,22.3703124 L2.9195312,52.971875 C2.9195312,53.7445312 2.2921876,54.371875 1.5195312,54.371875 Z" id="Path"></path>
                <path d="M26.2976562,54.371875 C25.5242188,54.371875 24.8976562,53.7445312 24.8976562,52.971875 L24.8976562,48.3625 C24.8976562,47.5890624 25.5242188,46.9625 26.2976562,46.9625 C29.0320312,46.9585938 31.2476562,44.7429688 31.2507812,42.0085938 L31.2507812,37.1609376 C31.2507812,36.3875 31.878125,35.7609376 32.6507812,35.7609376 C33.4242188,35.7609376 34.0507812,36.3875 34.0507812,37.1609376 L34.0507812,42.0085938 C34.0460938,45.7492188 31.3757812,48.9546876 27.6976562,49.6359376 L27.6976562,52.971875 C27.6976562,53.7445312 27.0710938,54.371875 26.2976562,54.371875 Z" id="Path"></path>
                <path d="M41.925,5.6210938 L39.8226562,5.6210938 C39.665625,4.6484376 39.2890624,3.725 38.7226562,2.91875 L41.9242188,2.91875 C42.6976562,2.91875 43.3242188,2.2921876 43.3242188,1.51875 C43.3242188,0.7453124 42.6976562,0.11875 41.9242188,0.11875 L29.9242188,0.11875 C29.1507812,0.11875 28.5242188,0.7453124 28.5242188,1.51875 C28.5242188,2.2921876 29.1507812,2.91875 29.9242188,2.91875 L33.3578124,2.91875 C35.0234376,2.9210938 36.4882812,4.021875 36.9546876,5.6210938 L29.925,5.6210938 C29.1515624,5.6210938 28.525,6.2476562 28.525,7.0210938 C28.525,7.7945312 29.1515624,8.4210938 29.925,8.4210938 L36.6695312,8.4210938 C36.0195312,9.6476562 34.7460938,10.4148438 33.3585938,10.415625 L29.925,10.415625 C29.3515624,10.415625 28.8359376,10.765625 28.6242188,11.2984376 C28.4117188,11.83125 28.546875,12.4398438 28.9632812,12.8335938 L37.5460938,20.94375 C38.1078124,21.4726562 38.9929688,21.446875 39.5226562,20.8851562 C40.053125,20.3242188 40.0289062,19.4398438 39.46875,18.9078124 L33.4445312,13.2148438 C36.3515624,13.1726562 38.884375,11.221875 39.6664062,8.4210938 L41.925,8.4210938 C42.6976562,8.4210938 43.325,7.7945312 43.325,7.0210938 C43.325,6.2476562 42.6976562,5.6210938 41.925,5.6210938 Z" id="Path"></path>
            </g>
            <path d="M33.628125,64.971875 L3.4773438,64.971875 C1.6007812,64.9734376 0.0796876,66.4945312 0.0773438,68.371875 L0.0773438,77.5554688 C0.0796876,79.4320312 1.6007812,80.953125 3.4773438,80.9554688 L33.628125,80.9554688 C35.5046876,80.953125 37.0257812,79.4320312 37.028125,77.5554688 L37.028125,68.371875 C37.0257812,66.4945312 35.5046876,64.9734376 33.628125,64.971875 Z M34.228125,77.5554688 C34.228125,77.8867188 33.959375,78.1554688 33.628125,78.1554688 L3.4773438,78.1554688 C3.1460938,78.1554688 2.8773438,77.8867188 2.8773438,77.5554688 L2.8773438,68.371875 C2.8773438,68.0398438 3.1460938,67.771875 3.4773438,67.771875 L33.628125,67.771875 C33.959375,67.771875 34.228125,68.0398438 34.228125,68.371875 L34.228125,77.5554688 Z" fill="#295F95" fill-rule="nonzero"></path>
            <path d="M8.3875,69.2601562 C6.8179688,69.2273438 5.3851562,70.1476562 4.7617188,71.5882812 C4.1382812,73.0289062 4.4484376,74.7039062 5.546875,75.825 C6.6453124,76.9460938 8.3132812,77.2914062 9.7664062,76.6984376 C11.2195312,76.1054688 12.1695312,74.6921876 12.1695312,73.121875 C12.1890624,71.0125 10.496875,69.2851562 8.3875,69.2601562 Z M8.3875,74.184375 C7.95,74.2179688 7.5367188,73.98125 7.3460938,73.5867188 C7.1546876,73.1921876 7.225,72.7203124 7.5226562,72.3992188 C7.8203124,72.0773438 8.284375,71.9703124 8.6929688,72.1304688 C9.1007812,72.2898438 9.3695312,72.6835938 9.3695312,73.121875 C9.3898438,73.6859376 8.9507812,74.1609376 8.3875,74.184375 Z" id="Shape" fill="#295F95" fill-rule="nonzero"></path>
            <path d="M59.7132812,5.2328124 L57.6453124,5.2328124 L57.6453124,3.1648438 C57.6429688,1.4179688 56.2273438,0.00234376 54.4804688,0 L27.6601562,0 C25.9132812,0.00234376 24.4976562,1.4179688 24.4953124,3.1648438 L24.4953124,32.1375 C24.4953124,32.9109376 25.1226562,33.5375 25.8953124,33.5375 C26.66875,33.5375 27.2953124,32.9109376 27.2953124,32.1375 L27.2953124,3.1648438 C27.2960938,2.9632812 27.459375,2.8 27.6601562,2.8 L54.4804688,2.8 C54.6820312,2.8 54.8445312,2.9632812 54.8453124,3.1648438 L54.8453124,42.890625 C54.8445312,43.0921876 54.6820312,43.2554688 54.4804688,43.25625 L25.8960938,43.25625 C25.1226562,43.25625 24.4960938,43.8828124 24.4960938,44.65625 C24.4960938,45.4289062 25.1226562,46.05625 25.8960938,46.05625 L29.903125,46.05625 L29.903125,48.1234376 C29.9054688,49.8703124 31.3210938,51.2859376 33.0679688,51.2882812 L59.7132812,51.2882812 C61.4601562,51.2859376 62.8757812,49.8703124 62.8773438,48.1234376 L62.8773438,8.3976562 C62.8757812,6.6507812 61.4601562,5.234375 59.7132812,5.2328124 Z M60.0773438,48.1234376 C60.0773438,48.325 59.9140624,48.4882812 59.7132812,48.4882812 L33.0679688,48.4882812 C32.8664062,48.4882812 32.703125,48.325 32.703125,48.1234376 L32.703125,46.05625 L54.4804688,46.05625 C56.2273438,46.0539062 57.6429688,44.6382812 57.6453124,42.890625 L57.6453124,8.0328124 L59.7132812,8.0328124 C59.9140624,8.0328124 60.0773438,8.1960938 60.0773438,8.3976562 L60.0773438,48.1234376 Z" id="Shape" fill="#295F95" fill-rule="nonzero"></path>
            <path d="M25.1445312,59.9851562 C24.3710938,59.9851562 23.7445312,59.3585938 23.7445312,58.5851562 L23.7445312,55.4085938 C23.7445312,55.1320312 23.8265624,54.8617188 23.9796876,54.6320312 C25.36875,52.5351562 25.5679688,49.8679688 24.50625,47.5882812 C24.0117188,46.5585938 23.7515624,45.4320312 23.7445312,44.2898438 C23.7445312,44.2632812 23.7453124,44.2367188 23.746875,44.209375 L23.8320312,42.7398438 C23.8515624,42.396875 23.996875,42.0734376 24.2398438,41.8304688 L30.9789062,35.090625 C32.2929688,33.7765624 32.2929688,31.6460938 30.9789062,30.33125 L30.7367188,30.0898438 L16.4554688,41.3992188 C15.8492188,41.8789062 14.96875,41.7773438 14.4890624,41.1710938 C14.0085938,40.5648438 14.1109376,39.684375 14.7171876,39.2039062 L29.9765624,27.121875 C30.5335938,26.6796876 31.3335938,26.7265624 31.8359376,27.2296876 L32.959375,28.3523438 C35.3679688,30.7601562 35.3679688,34.6648438 32.959375,37.0726562 L26.5976562,43.4335938 L26.5460938,44.3273438 C26.559375,45.0453124 26.728125,45.7515624 27.0414062,46.3976562 C28.4507812,49.4242188 28.2648438,52.953125 26.5453124,55.8148438 L26.5453124,58.5851562 C26.5453124,59.359375 25.9179688,59.9859376 25.1445312,59.9851562 Z" id="Path" fill="#295F95"></path>
            <path d="M13.4820312,32.3578124 L24.4960938,23.6390624 L24.4960938,20.471875 L9.4820312,32.3578124 C8.6046876,33.2765624 8.1164062,34.4992188 8.1195312,35.7703124 L8.11951629,64.971875 L12.1195312,64.971875 L12.1195312,35.7695312 C12.1164062,34.4992188 12.6046876,33.2765624 13.4820312,32.3578124 Z" id="Path" fill="#D4E1F4"></path>
        </g>
    </g>
</svg>