<?xml version="1.0" encoding="UTF-8"?>
<svg width="159px" height="30px" viewBox="0 0 159 30" version="1.1" xmlns="http://www.w3.org/2000/svg" xmlns:xlink="http://www.w3.org/1999/xlink">
    <!-- Generator: Sketch 52.6 (67491) - http://www.bohemiancoding.com/sketch -->
    <title>assets/logo/logo_mark+txt</title>
    <desc>Created with Sketch.</desc>
    <defs>
        <polygon id="path-1" points="0.0668043478 11.4130435 17.6426377 11.4130435 17.6426377 0.040884058 0.0668043478 0.040884058"></polygon>
    </defs>
    <g id="Page-1" stroke="none" stroke-width="1" fill="none" fill-rule="evenodd">
        <g id="poke_biz_top_pc" transform="translate(-37.000000, -26.000000)">
            <g id="header" transform="translate(0.000000, 1.000000)">
                <g id="Group-2">
                    <g id="assets/logo/logo_mark+txt" transform="translate(37.000000, 25.000000)">
                        <g id="assets/logo/logo_mark" transform="translate(0.450000, 0.450000)" stroke-width="1">
                            <g id="Group-19">
                                <g id="Group-4" transform="translate(3.043478, 17.500000)">
                                    <mask id="mask-2" fill="white">
                                        <use xlink:href="#path-1"></use>
                                    </mask>
                                    <g id="Clip-3"></g>
                                    <path d="M17.6426377,0.040884058 L17.6426377,2.5307029 L17.6418768,2.5307029 C17.6418768,2.54871014 17.6426377,2.56646377 17.6426377,2.58421739 L17.6426377,2.58878261 C17.6426377,7.4624058 13.7079275,11.4130942 8.8545942,11.4130942 C4.00126087,11.4130942 0.0668043478,7.4624058 0.0668043478,2.58878261 L0.0668043478,2.58421739 C0.0668043478,2.56646377 0.0673115942,2.54871014 0.0673115942,2.5307029 L0.0668043478,2.5307029 L0.0668043478,0.040884058 L1.65473913,0.501210145 L8.8545942,2.58878261 L16.0544493,0.501210145 L17.6426377,0.040884058 Z" id="Fill-2" fill="#008CD6" mask="url(#mask-2)"></path>
                                </g>
                                <polygon id="Fill-1" fill="#008CD6" points="3.11033333 13.2478551 20.6861667 13.2478551 20.6861667 17.0560072 19.0979783 17.5163333 11.8978696 19.6039058 4.69826812 17.5163333 3.11033333 17.0560072"></polygon>
                                <path d="M4.19196014,8.96697464 C5.21786594,8.44273551 6.46696014,8.81987319 7.03609058,9.80672101 L6.29931522,10.3281703 L4.93152536,11.2980254 L6.42993116,10.5452717 L7.21540217,10.1506341 L7.69119928,11.0814312 L6.40811957,11.9906703 L7.79898913,11.2924457 L8.57507609,12.8103804 L3.74558333,12.8103804 L3.33090942,11.9998007 L3.33090942,11.9995471 C3.30453261,11.9556703 3.27917029,11.9105254 3.25583696,11.8638587 C2.71409783,10.8054891 3.13359058,9.50846014 4.19196014,8.96697464" id="Fill-5" fill="#FF6600"></path>
                                <path d="M1.90536957,4.49501449 C2.22569565,4.33117391 2.97515217,5.15595652 3.57928261,6.33733333 C4.18341304,7.51871014 4.41344928,8.60928986 4.09286957,8.77287681 C3.77254348,8.93671739 3.02308696,8.11193478 2.41895652,6.93081159 C1.81507971,5.74943478 1.58478986,4.65885507 1.90536957,4.49501449" id="Fill-7" fill="#33CC33"></path>
                                <path d="M4.08741667,3.80447464 C4.44071377,3.73548913 4.93274275,4.73527174 5.18687319,6.03762681 C5.44100362,7.33998188 5.36060507,8.4513587 5.00730797,8.5203442 C4.65451812,8.58907609 4.16223551,7.58929348 3.90810507,6.28719203 C3.65372101,4.98483696 3.73411957,3.87346014 4.08741667,3.80447464" id="Fill-9" fill="#33CC33"></path>
                                <path d="M0.0678442029,5.85983696 C-0.194655797,6.10585145 0.327807971,7.09041667 1.23476449,8.05875 C2.14172101,9.02708333 3.08976449,9.61244565 3.35251812,9.36668478 C3.61501812,9.12092391 3.09280797,8.1363587 2.18559783,7.16777174 C1.2786413,6.19943841 0.330344203,5.61382246 0.0678442029,5.85983696" id="Fill-11" fill="#33CC33"></path>
                                <path d="M18.7851848,8.4583587 L20.8123949,6.90466304 L24.8023949,3.84647464 L18.7164529,4.62332246 L17.4960181,3.40491667 L17.3867065,4.53024275 L17.0864167,7.62977174 L16.7856196,4.53024275 L16.588808,2.49948188 L14.311779,0.227271739 L15.5672138,5.09480797 L16.2050761,7.5681413 C14.3921775,7.93513406 12.3964167,9.93241667 11.0045326,12.810279 L19.9921775,12.810279 C20.0030833,10.9522355 19.5853659,9.39549638 18.7851848,8.4583587" id="Fill-13" fill="#FDD000"></path>
                                <path d="M13.7476449,6.48735145 L13.8939855,7.87441667 C12.7308696,8.80217029 11.578913,10.5633297 10.7064493,12.836808 L10.4241667,12.836808 L9.82231884,7.14372826 C9.78960145,6.83329348 9.56996377,6.61390942 9.33206522,6.65372826 C9.09391304,6.6935471 8.92778986,6.97760507 8.96050725,7.28803986 L9.54688406,12.836808 L8.77891304,12.836808 L8.20623188,7.41637319 L8.20572464,7.41459783 C8.00257246,5.48706159 9.07793478,3.71677174 10.6077899,3.46010507 C12.1378986,3.20369203 13.5437319,4.55829348 13.7473913,6.48557609 L13.7476449,6.48735145 Z" id="Fill-15" fill="#A50082"></path>
                            </g>
                        </g>
                        <g id="assets/logo/logo_txt" transform="translate(29.700000, 8.550000)" fill="#898989">
                            <path d="M123.968225,2.15123188 L124.970036,0 L127.224746,0 L125.235326,2.15123188 L123.968225,2.15123188 Z M121.065507,13.6588768 L121.065507,3.10865942 L128.875072,3.10865942 L128.875072,4.89213768 L123.202029,4.89213768 L123.202029,7.23460145 L128.477138,7.23460145 L128.477138,9.01731884 L123.202029,9.01731884 L123.202029,11.8761594 L129.081268,11.8761594 L129.081268,13.6588768 L121.065507,13.6588768 Z M109.906594,13.6588768 L109.906594,3.10865942 L112.043116,3.10865942 L112.043116,7.26376812 L116.198225,7.26376812 L116.198225,3.10865942 L118.334746,3.10865942 L118.334746,13.6588768 L116.198225,13.6588768 L116.198225,9.04699275 L112.043116,9.04699275 L112.043116,13.6588768 L109.906594,13.6588768 Z M105.495833,9.76880435 L107.558551,10.4023551 C107.241775,11.5639493 106.713986,12.4260145 105.97721,12.991087 C105.240435,13.5533696 104.307101,13.8356522 103.175181,13.8356522 C101.772645,13.8356522 100.620942,13.3568116 99.7172826,12.3991304 C98.8159058,11.4411957 98.3642029,10.1325 98.3642029,8.47 C98.3642029,6.71391304 98.818442,5.34891304 99.7246377,4.37576087 C100.630833,3.40336957 101.824384,2.91742754 103.3025,2.91742754 C104.594457,2.91742754 105.643188,3.30039855 106.448696,4.06431159 C106.929819,4.51601449 107.288442,5.16452899 107.529384,6.01163043 L105.422029,6.51278986 C105.296993,5.9675 105.036775,5.53507246 104.641123,5.21855072 C104.243442,4.90152174 103.762065,4.74452899 103.197246,4.74452899 C102.413804,4.74452899 101.777717,5.02427536 101.291522,5.58706522 C100.80279,6.14681159 100.559565,7.05528986 100.559565,8.3125 C100.559565,9.64351449 100.800254,10.5940942 101.279094,11.158913 C101.760725,11.7265217 102.38413,12.0088043 103.153116,12.0088043 C103.720217,12.0088043 104.208949,11.8294928 104.616522,11.4683333 C105.024348,11.1074275 105.319058,10.5426087 105.495833,9.76880435 Z M89.724529,7.57344203 L91.3013043,7.57344203 C92.3231522,7.57344203 92.9589855,7.52931159 93.2143841,7.44307971 C93.4672464,7.35735507 93.6686232,7.20771739 93.8111594,6.99644928 C93.9559783,6.78518116 94.0272464,6.5198913 94.0272464,6.20336957 C94.0272464,5.84702899 93.9313768,5.56221014 93.7424275,5.34130435 C93.5532246,5.12293478 93.2853986,4.98521739 92.9417391,4.92865942 C92.7675,4.90405797 92.2493478,4.89213768 91.3872826,4.89213768 L89.724529,4.89213768 L89.724529,7.57344203 Z M87.5882609,13.6588768 L87.5882609,3.10865942 L92.0748551,3.10865942 C93.2019565,3.10865942 94.0224275,3.20478261 94.532971,3.39347826 C95.046558,3.58293478 95.4538768,3.91923913 95.7610145,4.40315217 C96.0678986,4.88960145 96.2228623,5.44199275 96.2228623,6.06565217 C96.2228623,6.85898551 95.9918116,7.51206522 95.5276812,8.02768116 C95.0635507,8.5432971 94.3711594,8.86793478 93.4477174,9.00311594 C93.907029,9.27043478 94.2851812,9.56539855 94.5824275,9.88673913 C94.8817029,10.2088406 95.2844565,10.7807609 95.7904348,11.6012319 L97.0773188,13.6588768 L94.530942,13.6588768 L93.0031159,11.355471 C92.4555435,10.5375362 92.0799275,10.0219203 91.8760145,9.80836957 C91.6746377,9.59710145 91.4608333,9.44974638 91.2351087,9.37112319 C91.0065942,9.29275362 90.647971,9.25318841 90.1569565,9.25318841 L89.724529,9.25318841 L89.724529,13.6588768 L87.5882609,13.6588768 Z M82.0283333,9.4740942 L80.5621377,5.56981884 L79.1377899,9.4740942 L82.0283333,9.4740942 Z M85.9328623,13.6588768 L83.6317391,13.6588768 L82.7207246,11.2573188 L78.489529,11.2573188 L77.6127536,13.6588768 L75.3532246,13.6588768 L79.4497464,3.10865942 L81.7064855,3.10865942 L85.9328623,13.6588768 Z M63.6074275,13.6588768 L63.6074275,3.10865942 L66.8073913,3.10865942 L68.6981522,10.3042029 L70.5671014,3.10865942 L73.7744203,3.10865942 L73.7744203,13.6588768 L71.7999638,13.6588768 L71.7923551,5.35373188 L69.7123913,13.6588768 L67.6593116,13.6588768 L65.5892391,5.35373188 L65.5818841,13.6588768 L63.6074275,13.6588768 Z M56.8587681,13.6588768 L56.8587681,4.3465942 L53.3815942,4.3465942 L53.3815942,3.10865942 L61.735942,3.10865942 L61.735942,4.3465942 L58.2585145,4.3465942 L58.2585145,13.6588768 L56.8587681,13.6588768 Z M43.8605797,13.6588768 L43.8605797,3.10865942 L51.4784058,3.10865942 L51.4784058,4.3465942 L45.2603261,4.3465942 L45.2603261,7.58815217 L51.0802174,7.58815217 L51.0802174,8.82608696 L45.2603261,8.82608696 L45.2603261,12.4214493 L51.7287319,12.4214493 L51.7287319,13.6588768 L43.8605797,13.6588768 Z M33.4257609,13.6588768 L33.4257609,3.10865942 L34.8255072,3.10865942 L34.8255072,8.33963768 L40.0663768,3.10865942 L41.9573913,3.10865942 L37.5316667,7.38677536 L42.1486232,13.6588768 L40.3068116,13.6588768 L36.5519203,8.33481884 L34.8255072,10.0046739 L34.8255072,13.6588768 L33.4257609,13.6588768 Z M29.8402899,9.95800725 L31.2402899,10.3118116 C30.9478623,11.458442 30.4223551,12.3303986 29.6635145,12.9322464 C28.9046739,13.533587 27.976413,13.8356522 26.8784783,13.8356522 C25.7440217,13.8356522 24.8208333,13.6048551 24.1086594,13.1407246 C23.3962319,12.6791304 22.8560145,12.0088043 22.4852174,11.132029 C22.1141667,10.2527174 21.9277536,9.31202899 21.9277536,8.30565217 C21.9277536,7.20771739 22.1364855,6.24978261 22.5564855,5.43210145 C22.9764855,4.61416667 23.5730072,3.99304348 24.3468116,3.56797101 C25.1203623,3.1434058 25.9725362,2.93188406 26.9007971,2.93188406 C27.9566304,2.93188406 28.8432971,3.19996377 29.5605435,3.7373913 C30.2800725,4.27532609 30.7809783,5.02934783 31.0632609,6.00173913 L29.6929348,6.32612319 C29.4499638,5.55992754 29.0938768,5.00018116 28.6297464,4.65144928 C28.1656159,4.30018116 27.5810145,4.12568841 26.8761957,4.12568841 C26.0681522,4.12568841 25.390471,4.31945652 24.8477174,4.70775362 C24.3049638,5.09554348 23.9217391,5.61876812 23.7033696,6.27210145 C23.4824638,6.92746377 23.3716304,7.60311594 23.3716304,8.29804348 C23.3716304,9.19434783 23.5017391,9.97778986 23.7622101,10.6455797 C24.0224275,11.316413 24.4274638,11.8147826 24.9778261,12.1460145 C25.5279348,12.4780072 26.1221739,12.6423551 26.7630797,12.6423551 C27.5442391,12.6423551 28.2021377,12.4166304 28.7426087,11.9667029 C29.2828261,11.515 29.6485507,10.8472101 29.8402899,9.95800725 Z M11.3630797,8.54836957 C11.3630797,9.81826087 11.7042029,10.8175362 12.3869565,11.5472101 C13.0697101,12.2763768 13.9269565,12.6423551 14.9581884,12.6423551 C16.0094565,12.6423551 16.8712681,12.2738406 17.5514855,11.5373188 C18.2291667,10.8002899 18.5682609,9.7540942 18.5682609,8.39873188 C18.5682609,7.54173913 18.423442,6.79278986 18.1335507,6.15416667 C17.8436594,5.5157971 17.4190942,5.01945652 16.8613768,4.66818841 C16.3016304,4.31692029 15.6754348,4.14014493 14.9802536,4.14014493 C13.9931522,4.14014493 13.1432609,4.47949275 12.4313406,5.15717391 C11.7191667,5.83485507 11.3630797,6.96474638 11.3630797,8.54836957 Z M9.91894928,8.52402174 C9.91894928,6.77554348 10.3906884,5.40521739 11.3311232,4.41557971 C12.271558,3.42568841 13.4846377,2.93188406 14.9731522,2.93188406 C15.9480797,2.93188406 16.8246014,3.16521739 17.6080435,3.62934783 C18.3892029,4.09347826 18.985471,4.74199275 19.3958333,5.57463768 C19.805942,6.40449275 20.0123913,7.34746377 20.0123913,8.40126812 C20.0123913,9.46927536 19.7963043,10.4272101 19.3641304,11.2692391 C18.9317029,12.1143116 18.3202174,12.7529348 17.5294203,13.1848551 C16.736087,13.6198188 15.8816304,13.8356522 14.9657971,13.8356522 C13.971087,13.8356522 13.0844203,13.5949638 12.3012319,13.1163768 C11.5200725,12.6375362 10.9258333,11.9842029 10.5230797,11.1538406 C10.1203261,10.3265217 9.91894928,9.44974638 9.91894928,8.52402174 Z M1.4,8.11873188 L4.12594203,8.11873188 C5.02934783,8.11873188 5.66797101,7.95184783 6.04891304,7.61503623 C6.42681159,7.27873188 6.61601449,6.80724638 6.61601449,6.19576087 C6.61601449,5.75648551 6.50543478,5.37807971 6.28224638,5.06384058 C6.05855072,4.74934783 5.76384058,4.54086957 5.40039855,4.43992754 C5.16452899,4.3782971 4.72981884,4.3465942 4.09855072,4.3465942 L1.4,4.3465942 L1.4,8.11873188 Z M-5.68434189e-14,13.6588768 L-5.68434189e-14,3.10865942 L3.98315217,3.10865942 C4.68315217,3.10865942 5.21855072,3.1434058 5.58934783,3.20985507 C6.1075,3.29557971 6.54221014,3.45992754 6.89347826,3.70061594 C7.24449275,3.94384058 7.52702899,4.28268116 7.74057971,4.71764493 C7.95438406,5.15210145 8.0598913,5.63119565 8.0598913,6.15416667 C8.0598913,7.04793478 7.77507246,7.80677536 7.20289855,8.42586957 C6.63300725,9.04699275 5.59923913,9.35615942 4.1059058,9.35615942 L1.4,9.35615942 L1.4,13.6588768 L-5.68434189e-14,13.6588768 Z" id="Fill-17"></path>
                        </g>
                    </g>
                </g>
            </g>
        </g>
    </g>
</svg>